HIERARCHY
ROOT Hips
{
	OFFSET 0.000000 0.000000 0.000000
	CHANNELS 6 Xposition Yposition Zposition Zrotation Yrotation Xrotation 
	JOINT LeftUpLeg_virtual
	{
		OFFSET 0.000000 0.000000 0.000000
		CHANNELS 3 Zrotation Yrotation Xrotation
		JOINT LeftUpLeg
		{
			OFFSET 8.479694 -4.795517 -0.379053
			CHANNELS 3 Zrotation Yrotation Xrotation
			JOINT LeftLeg
			{
				OFFSET 0.485052 -32.551468 0.112863
				CHANNELS 3 Zrotation Yrotation Xrotation
				JOINT LeftFoot
				{
					OFFSET 0.438033 -32.635670 -3.012641
					CHANNELS 3 Zrotation Yrotation Xrotation
					JOINT LeftToeBase
					{
						OFFSET 0.970169 -13.225353 11.864223
						CHANNELS 3 Zrotation Yrotation Xrotation
						End Site
						{
							OFFSET 0.000000 0.000000 0.000000
						}
					}
				}
			}
		}
	}
	JOINT RightUpLeg_virtual
	{
		OFFSET 0.000000 0.000000 0.000000
		CHANNELS 3 Zrotation Yrotation Xrotation
		JOINT RightUpLeg
		{
			OFFSET -8.479694 -4.795517 -0.379053
			CHANNELS 3 Zrotation Yrotation Xrotation
			JOINT RightLeg
			{
				OFFSET -0.484100 -32.551483 0.112903
				CHANNELS 3 Zrotation Yrotation Xrotation
				JOINT RightFoot
				{
					OFFSET -0.438985 -32.635651 -3.012681
					CHANNELS 3 Zrotation Yrotation Xrotation
					JOINT RightToeBase
					{
						OFFSET -0.970169 -13.225354 11.864223
						CHANNELS 3 Zrotation Yrotation Xrotation
						End Site
						{
							OFFSET 0.000000 0.000000 0.000000
						}
					}
				}
			}
		}
	}
	JOINT Spine_virtual
	{
		OFFSET 0.000000 0.000000 0.000000
		CHANNELS 3 Zrotation Yrotation Xrotation
		JOINT Spine
		{
			OFFSET 0.000000 7.722015 1.166203
			CHANNELS 3 Zrotation Yrotation Xrotation
			JOINT Spine1
			{
				OFFSET 0.000000 12.024086 0.248766
				CHANNELS 3 Zrotation Yrotation Xrotation
				JOINT Spine2
				{
					OFFSET -0.000000 11.503036 -0.491240
					CHANNELS 3 Zrotation Yrotation Xrotation
					JOINT Neck_virtual
					{
						OFFSET 0.000000 0.000000 0.000000
						CHANNELS 3 Zrotation Yrotation Xrotation
						JOINT Neck
						{
							OFFSET 0.000000 18.430687 -3.123054
							CHANNELS 3 Zrotation Yrotation Xrotation
							JOINT Head
							{
								OFFSET -0.000000 9.051071 1.034021
								CHANNELS 3 Zrotation Yrotation Xrotation
								End Site
								{
									OFFSET 0.000000 0.000000 0.000000
								}
							}
						}
					}
					JOINT LeftShoulder_virtual
					{
						OFFSET 0.000000 0.000000 0.000000
						CHANNELS 3 Zrotation Yrotation Xrotation
						JOINT LeftShoulder
						{
							OFFSET 6.197824 13.665230 -4.064723
							CHANNELS 3 Zrotation Yrotation Xrotation
							JOINT LeftArm
							{
								OFFSET 7.778132 -0.187073 -1.709282
								CHANNELS 3 Zrotation Yrotation Xrotation
								JOINT LeftForeArm
								{
									OFFSET 21.954697 0.000000 -2.041093
									CHANNELS 3 Zrotation Yrotation Xrotation
									JOINT LeftHand
									{
										OFFSET 22.992908 0.000000 -0.870901
										CHANNELS 3 Zrotation Yrotation Xrotation
										End Site
										{
											OFFSET 0.000000 0.000000 0.000000
										}
									}
								}
							}
						}
					}
					JOINT RightShoulder_virtual
					{
						OFFSET 0.000000 0.000000 0.000000
						CHANNELS 3 Zrotation Yrotation Xrotation
						JOINT RightShoulder
						{
							OFFSET -6.197824 13.665230 -4.064723
							CHANNELS 3 Zrotation Yrotation Xrotation
							JOINT RightArm
							{
								OFFSET -7.778132 -0.187073 -1.709282
								CHANNELS 3 Zrotation Yrotation Xrotation
								JOINT RightForeArm
								{
									OFFSET -21.954697 0.000000 -2.041093
									CHANNELS 3 Zrotation Yrotation Xrotation
									JOINT RightHand
									{
										OFFSET -22.992908 0.000000 -0.870901
										CHANNELS 3 Zrotation Yrotation Xrotation
										End Site
										{
											OFFSET 0.000000 0.000000 0.000000
										}
									}
								}
							}
						}
					}
				}
			}
		}
	}
}
MOTION
Frames: 8
Frame Time: 0.033333
-9.002776 81.266701 25.398556 179.663850 65.499766 -179.883400 -1.598871 3.292766 19.178299 3.571161 6.423315 -33.539446 4.907725 0.303243 34.217219 -3.337182 -9.463662 -8.451246 0.000000 0.000000 0.000000 3.865782 2.957612 16.687306 -3.579259 -6.096705 -33.531885 -1.315021 3.108736 32.183909 8.865039 5.512231 -8.406414 0.000000 0.000000 0.000000 4.349514 4.738962 21.672095 1.270669 -1.126309 9.480205 -0.543506 -3.871350 11.737436 0.100527 0.117426 0.040548 0.029138 -3.743067 11.568128 3.473477 -5.095468 -9.333055 0.000000 0.000000 0.000000 0.876639 -2.721758 7.905573 0.210382 -7.236940 0.572275 -55.794835 -39.946409 1.368823 1.514628 -26.117060 5.081474 0.000000 0.000000 0.000000 -2.486953 -1.281525 7.468872 16.502939 3.478524 0.457555 55.214071 35.360562 14.043036 -7.704114 31.153032 -6.805939 0.000000 0.000000 0.000000 
-9.794933 81.169067 25.638298 179.728368 66.735224 -179.899355 -1.649699 3.322184 19.796957 3.379249 6.627343 -34.551000 5.006024 0.732866 34.164630 -3.006142 -9.432582 -8.784600 0.000000 0.000000 0.000000 3.359247 2.555061 17.628947 -2.522377 -6.805786 -34.352242 -1.847724 2.033567 31.626843 9.836645 5.500919 -9.386988 0.000000 0.000000 0.000000 4.292111 4.233369 23.548426 1.374734 -1.374160 10.799723 -0.683922 -3.774742 11.940964 0.058987 0.158246 0.024324 -0.046605 -3.604882 11.779407 3.328384 -5.104894 -9.648478 0.000000 0.000000 0.000000 0.779486 -2.563202 7.951730 -0.059200 -7.577432 0.809989 -55.196190 -40.429269 1.094259 1.429796 -27.439337 5.453048 0.000000 0.000000 0.000000 -2.550153 -1.023337 7.579976 16.614188 3.967038 0.372357 55.228520 36.250235 14.182722 -7.828457 31.356094 -6.701719 0.000000 0.000000 0.000000 
-10.550719 81.063011 25.855625 179.579224 68.224239 179.813022 -1.688455 3.534532 20.644597 3.093818 7.081812 -35.512008 5.126651 1.222451 34.056279 -2.705791 -9.395537 -9.091272 0.000000 0.000000 0.000000 3.291761 2.660503 18.420325 -2.645806 -6.688846 -35.633708 -2.127246 1.492090 31.383582 10.861463 6.305318 -9.210645 0.000000 0.000000 0.000000 4.505876 4.514771 25.521400 1.584061 -1.231604 12.139513 -0.742829 -3.754645 12.126423 0.091112 0.049387 0.021358 -0.135744 -3.526475 11.900064 3.216886 -4.842612 -10.129795 0.000000 0.000000 0.000000 0.711969 -2.691873 7.999479 -0.331020 -8.234645 1.105403 -54.462528 -41.088232 0.673142 1.364820 -28.710041 5.838383 0.000000 0.000000 0.000000 -2.696282 -1.104613 7.552806 16.782917 4.227341 0.420596 55.153579 37.001505 14.100010 -8.130722 31.553681 -6.801630 0.000000 0.000000 0.000000 
-11.250182 80.971848 26.035990 179.689464 68.914013 179.927742 -1.693448 3.506170 21.429389 2.765034 7.555638 -36.722341 5.261385 1.431081 34.019489 -2.517486 -9.422570 -9.194260 0.000000 0.000000 0.000000 3.206920 2.559661 19.354663 -2.889415 -6.702241 -36.967125 -1.438952 1.809613 31.786952 7.882901 4.958518 -8.168181 0.000000 0.000000 0.000000 4.625529 3.863895 27.369763 1.726963 -1.637873 13.365873 -0.803417 -3.618899 12.269293 0.059548 0.094938 0.021004 -0.252481 -3.563418 12.066422 3.227707 -5.383882 -10.639193 0.000000 0.000000 0.000000 0.530488 -2.552520 8.174310 -0.601207 -8.874594 1.357533 -53.532936 -41.714441 0.055005 1.223462 -29.719956 6.273192 0.000000 0.000000 0.000000 -2.804173 -1.038297 7.740018 16.993101 4.573890 0.400821 55.029711 37.994351 13.894423 -8.292870 31.864188 -6.740525 0.000000 0.000000 0.000000 
-11.867141 80.886505 26.159681 179.773420 69.914158 -179.945787 -1.661742 3.522993 22.478965 2.219373 8.205857 -38.149694 5.395823 1.770251 33.865738 -2.347254 -9.417863 -9.331668 0.000000 0.000000 0.000000 3.136059 2.405869 20.369562 -2.936893 -6.787784 -38.294794 -1.391557 1.727979 32.117708 5.348745 2.866776 -5.445269 0.000000 0.000000 0.000000 4.889275 3.555220 29.244606 1.862929 -1.819880 14.607152 -0.896062 -3.555414 12.437175 -0.002253 0.060487 0.048099 -0.233885 -3.325072 12.188564 3.242289 -5.548873 -11.209537 0.000000 0.000000 0.000000 0.461910 -2.523953 8.252702 -0.916725 -9.555205 1.640128 -52.471791 -42.361998 -0.840333 1.098777 -30.626411 6.759690 0.000000 0.000000 0.000000 -2.830395 -0.983793 7.785444 17.193758 4.910151 0.417142 54.750373 38.834765 13.608273 -8.485390 32.387425 -6.540250 0.000000 0.000000 0.000000 
-12.378766 80.797783 26.228127 179.942017 70.828481 -179.739734 -1.608332 3.608495 22.970193 1.712954 8.690350 -39.053925 5.532356 2.055982 33.951047 -2.209541 -9.387170 -9.435818 0.000000 0.000000 0.000000 3.359475 2.109819 21.351718 -3.160757 -6.937066 -39.614383 -1.751810 1.054178 32.211804 4.080400 1.344624 -3.011317 0.000000 0.000000 0.000000 5.242020 3.231747 31.104415 2.032932 -1.969264 15.751635 -0.938489 -3.517649 12.548549 0.028177 0.012496 0.034365 -0.369627 -3.462602 12.443537 3.206172 -5.662317 -11.702951 0.000000 0.000000 0.000000 0.257868 -2.509176 8.463738 -1.169956 -10.337246 2.031428 -51.388824 -43.205997 -1.592452 1.135701 -31.461713 7.071792 0.000000 0.000000 0.000000 -2.993918 -0.933743 7.982156 17.243900 5.240173 0.347001 54.414413 39.664654 13.368602 -8.643358 33.008815 -6.469290 0.000000 0.000000 0.000000 
-12.775976 80.719055 26.250231 -179.752902 71.908546 -179.463207 -1.491816 3.702906 23.787754 1.198932 9.099019 -40.105344 5.695368 2.456812 34.097643 -2.019044 -9.237022 -9.585851 0.000000 0.000000 0.000000 3.396909 2.014421 22.260550 -3.310330 -6.613408 -40.936865 -1.535303 1.151742 32.051069 4.355785 1.525703 -2.634064 0.000000 0.000000 0.000000 5.664346 2.958963 32.983468 2.154873 -2.190659 16.866104 -1.035215 -3.443808 12.683284 -0.046860 -0.000079 0.013258 -0.482420 -3.377433 12.632889 3.112959 -5.812768 -12.228349 0.000000 0.000000 0.000000 0.104816 -2.398414 8.604560 -1.407320 -11.098523 2.286929 -50.138411 -44.225068 -2.637191 1.043629 -32.239237 7.514490 0.000000 0.000000 0.000000 -3.151105 -0.833656 8.112707 17.265190 5.652176 0.246548 53.796851 40.727441 12.951669 -8.781158 33.634413 -6.378466 0.000000 0.000000 0.000000 
-13.076402 80.668747 26.228300 -179.290663 73.064685 -179.065567 -1.360964 3.742025 24.647912 0.733297 9.347700 -41.098679 5.859764 2.962328 34.317018 -1.819819 -9.048657 -9.785674 0.000000 0.000000 0.000000 3.617706 1.870642 23.150549 -3.528636 -6.402754 -42.126216 -1.306355 1.489614 31.745995 4.656005 1.702755 -2.247640 0.000000 0.000000 0.000000 6.047274 2.695731 34.856395 2.199177 -2.289965 17.941826 -1.115532 -3.358125 12.876285 0.000640 0.000304 -0.050330 -0.596109 -3.428012 12.801711 3.009629 -6.067015 -12.741707 0.000000 0.000000 0.000000 -0.015646 -2.284616 8.725101 -1.537403 -11.915003 2.561693 -48.644317 -45.577805 -3.938664 1.007815 -32.883153 7.829195 0.000000 0.000000 0.000000 -3.245488 -0.711140 8.229404 16.985741 6.110797 0.126045 52.945738 42.027452 12.317776 -8.916354 34.185046 -6.091788 0.000000 0.000000 0.000000 
